<svg width="24" height="24" viewBox="0 0 24 24" fill="none" xmlns="http://www.w3.org/2000/svg">
<g id="Icon">
<path id="Vector (Stroke)" fill-rule="evenodd" clip-rule="evenodd" d="M20.4004 12.0001C20.4004 12.4971 19.9974 12.9001 19.5004 12.9001L6.73489 12.9L11.7242 17.6513C12.0825 17.9958 12.0937 18.5656 11.7491 18.9238C11.4046 19.2821 10.8349 19.2933 10.4766 18.9488L3.87659 12.6488C3.70012 12.4791 3.60039 12.2449 3.60039 12C3.60039 11.7552 3.70012 11.521 3.87659 11.3513L10.4766 5.0513C10.8349 4.70679 11.4046 4.71796 11.7491 5.07625C12.0937 5.43455 12.0825 6.00429 11.7242 6.3488L6.73489 11.1L19.5004 11.1001C19.9974 11.1001 20.4004 11.503 20.4004 12.0001Z" fill="#808080"/>
</g>
</svg>
