<svg width="25" height="24" viewBox="0 0 25 24" fill="none" xmlns="http://www.w3.org/2000/svg">
<g id="Icon">
<g id="Subtract">
<path fill-rule="evenodd" clip-rule="evenodd" d="M1.94922 3.2999C1.94922 2.80285 2.35216 2.3999 2.84922 2.3999H15.4492C15.9463 2.3999 16.3492 2.80285 16.3492 3.2999C16.3492 3.79696 15.9463 4.1999 15.4492 4.1999H15.1492V20.6999C15.1492 21.197 14.7463 21.5999 14.2492 21.5999H12.4492C11.9522 21.5999 11.5492 21.197 11.5492 20.6999V17.6999C11.5492 17.2028 11.1463 16.7999 10.6492 16.7999H7.64922C7.15216 16.7999 6.74922 17.2028 6.74922 17.6999V20.6999C6.74922 21.197 6.34628 21.5999 5.84922 21.5999H2.84922C2.35216 21.5999 1.94922 21.197 1.94922 20.6999C1.94922 20.2028 2.35216 19.7999 2.84922 19.7999H3.14922V4.1999H2.84922C2.35216 4.1999 1.94922 3.79696 1.94922 3.2999ZM5.54922 6.5999C5.54922 6.26853 5.81785 5.9999 6.14922 5.9999H7.34922C7.68059 5.9999 7.94922 6.26853 7.94922 6.5999V7.7999C7.94922 8.13127 7.68059 8.3999 7.34922 8.3999H6.14922C5.81785 8.3999 5.54922 8.13127 5.54922 7.7999V6.5999ZM6.14922 10.7999C5.81785 10.7999 5.54922 11.0685 5.54922 11.3999V12.5999C5.54922 12.9313 5.81785 13.1999 6.14922 13.1999H7.34922C7.68059 13.1999 7.94922 12.9313 7.94922 12.5999V11.3999C7.94922 11.0685 7.68059 10.7999 7.34922 10.7999H6.14922ZM10.3492 6.5999C10.3492 6.26853 10.6178 5.9999 10.9492 5.9999H12.1492C12.4806 5.9999 12.7492 6.26853 12.7492 6.5999V7.7999C12.7492 8.13127 12.4806 8.3999 12.1492 8.3999H10.9492C10.6178 8.3999 10.3492 8.13127 10.3492 7.7999V6.5999ZM10.9492 10.7999C10.6178 10.7999 10.3492 11.0685 10.3492 11.3999V12.5999C10.3492 12.9313 10.6178 13.1999 10.9492 13.1999H12.1492C12.4806 13.1999 12.7492 12.9313 12.7492 12.5999V11.3999C12.7492 11.0685 12.4806 10.7999 12.1492 10.7999H10.9492Z" fill="#A685FA"/>
<path fill-rule="evenodd" clip-rule="evenodd" d="M17.8492 7.1999C17.3522 7.1999 16.9492 7.60285 16.9492 8.0999V20.3999C16.9492 21.0626 17.4865 21.5999 18.1492 21.5999H22.6492C23.1463 21.5999 23.5492 21.197 23.5492 20.6999C23.5492 20.2028 23.1463 19.7999 22.6492 19.7999H22.3492V8.9999H22.6492C23.1463 8.9999 23.5492 8.59696 23.5492 8.0999C23.5492 7.60285 23.1463 7.1999 22.6492 7.1999H17.8492ZM18.4492 11.3999C18.4492 11.0685 18.7178 10.7999 19.0492 10.7999H20.2492C20.5806 10.7999 20.8492 11.0685 20.8492 11.3999V12.5999C20.8492 12.9313 20.5806 13.1999 20.2492 13.1999H19.0492C18.7178 13.1999 18.4492 12.9313 18.4492 12.5999V11.3999ZM19.0492 15.5999C18.7178 15.5999 18.4492 15.8685 18.4492 16.1999V17.3999C18.4492 17.7313 18.7178 17.9999 19.0492 17.9999H20.2492C20.5806 17.9999 20.8492 17.7313 20.8492 17.3999V16.1999C20.8492 15.8685 20.5806 15.5999 20.2492 15.5999H19.0492Z" fill="#A685FA"/>
</g>
</g>
</svg>
